<?xml version="1.0" encoding="utf-8"?>
<!-- Generator: Adobe Illustrator 27.0.0, SVG Export Plug-In . SVG Version: 6.00 Build 0)  -->
<svg version="1.1" id="Layer_1" xmlns="http://www.w3.org/2000/svg" xmlns:xlink="http://www.w3.org/1999/xlink" x="0px" y="0px"
	 viewBox="0 0 1000 244.3" enable-background="new 0 0 1000 244.3" xml:space="preserve">
<g>
	<path d="M110.2,204.9v39.4H16.3L1.7,229H0V3.8h39.5l14.9,17v167h41.1L110.2,204.9z M90.5,217.8H11.3V9.1H5.4v214.6h85.1V217.8z
		 M90.5,205.5H22.8V9.1h-5.9v202.2h73.6V205.5z M90.5,193.4H34.4V9.1h-5.6v190.2h61.7V193.4z"/>
	<path d="M116.1,229V65.8c0-9.4,1.6-18.1,4.8-26.2c3.4-8,7.9-15,13.5-20.9c5.8-5.9,12.5-10.5,20-13.8c7.7-3.3,16-5,24.8-5
		C190,0,200,2.6,209.4,7.9S228,21.1,237,31.7c7,8.2,12.2,16.5,15.8,24.7c3.6,8.2,5.4,16.8,5.4,25.6v162.3h-38L203.8,229v-76.4h-33.5
		v91.7h-38L116.1,229z M170.2,95.8h33.5V65.3c0-3.9-0.6-6.5-1.7-7.6c-0.9-1.2-3.4-1.8-7.3-1.8c-7.7,0-13.7,2.4-18,7.3
		c-4.3,4.7-6.5,10.8-6.5,18.2V95.8z M214.5,126.1h-69.9v97.6h5.6V132h58.6v91.7h5.6L214.5,126.1L214.5,126.1z M238.5,65.8
		c0-8.4-1.6-16.3-4.8-23.5c-3.2-7.3-7.5-13.6-13-19.1c-5.3-5.5-11.5-9.8-18.6-12.9s-14.7-4.7-22.8-4.7s-15.7,1.6-22.8,4.7
		c-7,2.9-13.1,7.2-18.3,12.6c-5.3,5.3-9.4,11.7-12.4,19.1c-3,7.3-4.5,15.2-4.5,23.8v157.9h5.6V65.3c0-7.3,1.5-14.1,4.5-20.6
		c3-6.7,7-12.4,11.8-17.3c4.9-5.1,10.5-9.1,16.9-12.1c6.4-2.9,12.9-4.4,19.4-4.4c7,0,13.5,1.6,19.7,4.7c6.4,2.9,12,7,16.9,12.1
		c4.9,4.9,8.7,10.7,11.6,17.3c3,6.5,4.5,13.2,4.5,20.3v158.4h6.2V65.8H238.5z M214.5,66.4c0-5.3-0.9-10.2-2.8-14.7
		c-1.7-4.7-4.1-8.7-7.3-12.1c-3-3.3-6.7-6-11-7.9c-4.3-2-9-2.9-14.1-2.9s-9.8,1-14.1,2.9c-4.1,2-7.8,4.6-11,7.9
		c-3,3.3-5.4,7.3-7,12.1c-1.7,4.5-2.5,9.4-2.5,14.7v41.2h69.9L214.5,66.4L214.5,66.4z M150.2,101.4V65.3c0-9,2.5-16.3,7.6-21.8
		c5.3-5.7,12.4-8.5,21.4-8.5c8.8,0,16,2.7,21.4,8.2c5.4,5.3,8.2,12.6,8.2,22v36.2C208.8,101.4,150.2,101.4,150.2,101.4z M226.3,65.3
		c0-6.3-1.2-12.3-3.7-18.2c-2.4-5.9-5.8-11.1-10.1-15.6c-4.1-4.7-9.1-8.4-14.9-11.2c-5.6-2.7-11.7-4.1-18.3-4.1
		c-6.2,0-12.1,1.3-17.8,3.8c-5.6,2.5-10.6,6.2-14.9,10.9c-4.1,4.5-7.5,9.8-10.1,15.9c-2.4,6.1-3.7,12.6-3.7,19.7v157.3h5.9V119.6h82
		v104.1h5.6V65.3z M138.7,113.8V65.3c0-5.9,1-11.4,3.1-16.5c2.3-5.1,5.2-9.5,8.7-13.2c3.8-3.9,8.1-7,13-9.1
		c5.1-2.4,10.3-3.5,15.8-3.5c5.6,0,10.9,1.2,15.8,3.5c5.1,2.2,9.5,5.2,13.2,9.1c3.9,3.9,7,8.5,9,13.8c2.3,5.3,3.4,11,3.4,17v47.3
		h-82V113.8z"/>
	<path d="M342.7,56.7h-1.4c-5.1,0-9.3,1.6-12.7,4.7c-3.2,2.9-4.8,7.5-4.8,13.8v169h-38L269.7,229V59.1c0-8.6,1.1-16.6,3.4-23.8
		c2.3-7.3,5.6-13.4,10.1-18.5c4.7-5.3,10.5-9.4,17.5-12.3c7.1-2.9,15.5-4.4,25.1-4.4c7.7,0,14.5,1.1,20.3,3.2
		c6,2.2,11.3,5.2,15.8,9.1C370.3,4.1,382.6,0,398.5,0c11.3,0,20.9,2.2,28.7,6.5c7.9,4.3,15.6,10.9,23.1,19.7
		c6.8,8.2,11.6,16.3,14.4,24.1c3,7.6,4.5,16,4.5,25v169h-37.8L415.2,229V56.7H414c-4.9,0-9.1,1.6-12.7,4.7
		c-3.4,2.9-5.1,7.5-5.1,13.8v169h-37.5l-16-15.2L342.7,56.7L342.7,56.7z M347.8,223.7h5.6V59.1c0-9.2-2.5-16.4-7.6-21.5
		s-11.7-7.6-20-7.6c-8.1,0-14.7,2.5-20,7.6c-5.1,5.1-7.6,12.2-7.6,21.5v164.6h5.6V59.1c0-7.8,2.1-13.6,6.2-17.3
		c4.1-3.9,9.4-5.9,15.8-5.9c6.2,0,11.4,2,15.5,5.9c4.3,3.7,6.5,9.5,6.5,17.3V223.7z M420.2,223.7h5.6V59.1c0-9.2-2.5-16.4-7.6-21.5
		c-4.9-5.1-11.5-7.6-19.7-7.6c-8.1,0-14.7,2.5-20,7.6s-7.9,12.2-7.9,21.5v164.6h5.9V59.1c0-7.8,2.1-13.6,6.2-17.3
		c4.1-3.9,9.4-5.9,15.8-5.9c6.2,0,11.4,2,15.5,5.9c4.1,3.7,6.2,9.5,6.2,17.3V223.7z M443.9,223.7h5.6V59.1c0-7.8-1-15-3.1-21.5
		c-2.1-6.7-5.3-12.3-9.6-17c-4.1-4.7-9.4-8.3-15.8-10.9c-6.4-2.7-13.9-4.1-22.5-4.1c-7.9,0-15,1.3-21.4,3.8
		c-6.2,2.5-11.3,6-15.2,10.3c-4.1-4.3-9.2-7.7-15.2-10.3c-5.8-2.5-12.8-3.8-20.9-3.8c-8.6,0-16.2,1.4-22.5,4.1
		c-6.4,2.5-11.7,6.2-16.1,10.9c-4.1,4.7-7.2,10.4-9.3,17c-2.1,6.5-3.1,13.6-3.1,21.5v164.6h5.6V59.1c0-13.7,3.8-25,11.3-33.8
		c7.5-9,18.9-13.5,34.1-13.5c7.9,0,14.7,1.4,20.3,4.1c5.8,2.7,11.2,7.1,16.1,12.9c4.9-5.9,10.2-10.2,16.1-12.9
		c5.8-2.7,12.6-4.1,20.3-4.1c7.5,0,14.1,1.2,19.7,3.5c5.6,2.4,10.3,5.7,14.1,10c3.9,4.1,6.9,9.1,8.7,15c1.9,5.7,2.8,12,2.8,18.8
		V223.7z M359.3,223.7h5.6V59.1c0-10.8,2.9-19.3,8.7-25.6c5.8-6.5,14.1-9.7,24.8-9.7c10.7,0,18.9,3.2,24.5,9.7
		c5.8,6.3,8.7,14.8,8.7,25.6v164.6h5.9V59.1c0-12.3-3.3-22.3-9.9-30s-16.3-11.5-29.3-11.5c-9.6,0-17.5,2.2-23.7,6.5s-10.5,11-13,20
		c-1.3-8.2-5.4-14.7-12.1-19.4c-6.8-4.7-14.7-7.1-24-7.1c-12.8,0-22.5,3.8-29.3,11.5c-6.8,7.6-10.1,17.6-10.1,30v164.6h6.2V59.1
		c0-10.8,2.8-19.3,8.5-25.6c5.8-6.5,14.1-9.7,24.8-9.7c10.7,0,19,3.2,24.8,9.7c5.8,6.3,8.7,14.8,8.7,25.6v164.6L359.3,223.7
		L359.3,223.7z"/>
	<path d="M536.3,20.9v223.4h-38L481.9,229V3.8h39.5L536.3,20.9z M516.3,9.1h-5.6v214.6h5.6V9.1z M505.1,9.1h-6.2v214.6h6.2V9.1z
		 M493.2,9.1h-5.9v214.6h5.9V9.1z"/>
	<path d="M549.1,229V65.8c0-9.6,1.6-18.4,4.8-26.5c3.4-8.2,7.9-15.2,13.5-20.9C573.2,12.6,580,8.1,587.7,5c7.9-3.3,16.3-5,25.1-5
		c10.7,0,20.7,2.5,29.9,7.6c9.2,4.9,18.1,12.4,26.8,22.6c7.1,8.6,12.5,17,16.1,25.3c3.8,8.2,5.6,17,5.6,26.5v162.3h-38L636.7,229
		V65.8c0-3.7-0.5-6.2-1.4-7.3c-0.8-1.2-3.1-1.8-7-1.8c-7.9,0-14.1,2.3-18.6,6.8c-4.3,4.3-6.5,10.5-6.5,18.5v162.3h-38L549.1,229z
		 M583.2,65.8c0-9.4,2.6-16.8,7.9-22c5.4-5.3,12.7-7.9,21.7-7.9s16.1,2.6,21.1,7.9c5.3,5.3,7.9,12.6,7.9,22v157.9h5.6V65.8
		c0-5.5-0.9-10.5-2.8-15c-1.9-4.5-4.4-8.2-7.6-11.2c-3.2-3.1-7-5.5-11.3-7.1c-4.1-1.8-8.5-2.6-13-2.6c-4.7,0-9.2,0.9-13.5,2.6
		c-4.1,1.6-7.9,3.9-11.3,7.1c-3.2,2.9-5.7,6.7-7.6,11.2c-1.9,4.5-2.8,9.5-2.8,15v157.9h5.6L583.2,65.8L583.2,65.8z M571.9,65.8
		c0-6.3,1-12,3.1-17c2.1-5.3,4.9-9.7,8.5-13.2c3.6-3.7,7.8-6.6,12.7-8.5c5.1-2.2,10.6-3.2,16.6-3.2c5.8,0,11.2,1.1,16.1,3.2
		c5.1,2,9.4,4.8,13,8.5c3.8,3.5,6.6,7.9,8.5,13.2c2.1,5.1,3.1,10.8,3.1,17v157.9h5.9V65.8c0-7.3-1.3-13.8-3.9-19.7
		c-2.6-5.9-6.1-10.9-10.4-15c-4.3-4.3-9.3-7.6-14.9-10c-5.4-2.4-11.2-3.5-17.2-3.5s-11.8,1.2-17.5,3.5c-5.6,2.4-10.7,5.7-15.2,10
		c-4.3,4.1-7.8,9.1-10.4,15c-2.6,5.9-3.9,12.4-3.9,19.7v157.9h6.2V65.8H571.9z M559.8,65.8c0-8.2,1.5-15.7,4.5-22.3
		c3-6.7,7-12.3,11.8-17c5.1-4.7,10.7-8.3,16.9-10.9c6.4-2.5,13-3.8,19.7-3.8c6.6,0,13,1.3,19.2,3.8c6.4,2.5,12,6.2,16.9,10.9
		s8.8,10.4,11.8,17c3,6.7,4.5,14.1,4.5,22.3v157.9h6.2V65.8c0-8.8-1.6-17-4.8-24.4c-3-7.4-7.1-13.8-12.4-19.1
		C649,17,642.8,12.9,635.6,10c-7.1-2.9-14.8-4.4-22.8-4.4c-8.3,0-16,1.5-23.1,4.4c-7,2.9-13.2,7.1-18.6,12.3
		c-5.3,5.3-9.4,11.7-12.4,19.1s-4.5,15.6-4.5,24.4v157.9h5.6V65.8z"/>
	<path d="M702.7,229V65.8c0-9.4,1.6-18.1,4.8-26.2c3.4-8,7.9-15,13.5-20.9c5.8-5.9,12.5-10.5,20-13.8c7.7-3.3,16-5,24.8-5
		c10.7,0,20.8,2.6,30.2,7.9s18.6,13.2,27.6,23.8c6.9,8.2,12.2,16.5,15.8,24.7s5.4,16.8,5.4,25.6v162.3h-38.1L790.3,229v-76.4h-33.5
		v91.7h-38L702.7,229z M756.8,95.8h33.5V65.3c0-3.9-0.6-6.5-1.7-7.6c-0.9-1.2-3.4-1.8-7.3-1.8c-7.7,0-13.7,2.4-18,7.3
		c-4.3,4.7-6.5,10.8-6.5,18.2V95.8z M801,126.1h-69.9v97.6h5.6V132h58.6v91.7h5.6v-97.6H801z M825,65.8c0-8.4-1.6-16.3-4.8-23.5
		c-3.2-7.3-7.5-13.6-13-19.1c-5.3-5.5-11.5-9.8-18.6-12.9s-14.7-4.7-22.8-4.7s-15.7,1.6-22.8,4.7c-7,2.9-13.1,7.2-18.3,12.6
		c-5.3,5.3-9.4,11.7-12.4,19.1c-3,7.3-4.5,15.2-4.5,23.8v157.9h5.6V65.3c0-7.3,1.5-14.1,4.5-20.6c3-6.7,7-12.4,11.8-17.3
		c4.9-5.1,10.5-9.1,16.9-12.1c6.4-2.9,12.9-4.4,19.5-4.4c6.9,0,13.5,1.6,19.7,4.7c6.4,2.9,12,7,16.9,12.1
		c4.9,4.9,8.7,10.7,11.6,17.3c3,6.5,4.5,13.2,4.5,20.3v158.4h6.2L825,65.8L825,65.8z M801,66.4c0-5.3-0.9-10.2-2.8-14.7
		c-1.7-4.7-4.1-8.7-7.3-12.1c-3-3.3-6.7-6-11-7.9c-4.3-2-9-2.9-14.1-2.9s-9.8,1-14.1,2.9c-4.1,2-7.8,4.6-11,7.9
		c-3,3.3-5.4,7.3-7,12.1c-1.7,4.5-2.5,9.4-2.5,14.7v41.2H801V66.4z M736.8,101.4V65.3c0-9,2.5-16.3,7.6-21.8
		c5.3-5.7,12.4-8.5,21.4-8.5c8.8,0,16,2.7,21.4,8.2c5.5,5.3,8.2,12.6,8.2,22v36.2C795.4,101.4,736.8,101.4,736.8,101.4z M812.9,65.3
		c0-6.3-1.2-12.3-3.7-18.2c-2.4-5.9-5.8-11.1-10.2-15.6c-4.1-4.7-9.1-8.4-14.9-11.2c-5.6-2.7-11.7-4.1-18.3-4.1
		c-6.2,0-12.1,1.3-17.8,3.8c-5.6,2.5-10.6,6.2-14.9,10.9c-4.1,4.5-7.5,9.8-10.1,15.9c-2.4,6.1-3.7,12.6-3.7,19.7v157.3h5.9V119.6h82
		v104.1h5.6V65.3H812.9z M725.2,113.8V65.3c0-5.9,1-11.4,3.1-16.5c2.3-5.1,5.2-9.5,8.7-13.2c3.8-3.9,8.1-7,13-9.1
		c5.1-2.4,10.3-3.5,15.8-3.5c5.6,0,10.9,1.2,15.8,3.5c5.1,2.2,9.5,5.2,13.3,9.1c3.9,3.9,6.9,8.5,9,13.8c2.3,5.3,3.4,11,3.4,17v47.3
		h-82.1V113.8z"/>
	<path d="M945.6,229v-64.7c0-5.1-0.7-8.3-2-9.7c-1.1-1.6-3.8-2.4-7.9-2.4h-24.2v92h-38L857.1,229V3.8h63.1c11.8,0,22.3,2.4,31.3,7.1
		c9,4.5,18,12,27.1,22.3c6.8,8.2,11.7,16.4,14.9,24.4s4.8,17.1,4.8,27.3c0,11.8-1.7,21.5-5.1,29.1c-3.2,7.6-7.5,13.9-13,18.8
		c7.1,7.3,12.2,14.8,15.2,22.6s4.5,16.2,4.5,25v63.8h-38L945.6,229z M911.5,96.1h8.7c7.3,0,13.4-2.2,18.3-6.5
		c4.9-4.5,7.3-11.5,7.3-20.9c0-3.3-0.7-5.5-2-6.5c-1.1-1.2-3.9-1.8-8.2-1.8h-24.2v35.7H911.5z M885.6,126.1v97.6h5.9v-92h28.7
		c9.6,0,17.1,3,22.5,9.1c5.5,5.9,8.2,13.7,8.2,23.5v59.4h5.6v-59.4c0-12.2-3.2-21.6-9.6-28.2c-6.4-6.7-15.3-10-26.8-10L885.6,126.1
		L885.6,126.1z M957.4,116.7c6.4-4.5,11.5-10.5,15.2-17.9c3.9-7.4,5.9-17.4,5.9-30c0-19.4-5.3-34.2-15.8-44.4S938,9.1,920.1,9.1
		h-57.8v214.6h5.6V15.6H920c16.4,0,29.1,4.6,38.3,13.8c9.4,9.2,14.1,22.3,14.1,39.4c0,11.2-1.8,20.7-5.4,28.5
		c-3.4,7.8-9.6,14.3-18.6,19.4c8.8,5.5,15.2,12.2,19.2,20.3c4.1,8,6.2,17.1,6.2,27.3v59.4h5.9v-59.4c0-10-1.9-19.1-5.6-27.3
		C970.6,128.8,965,122,957.4,116.7z M891.5,101.4V40h28.7c9.8,0,17.4,2.4,22.8,7.3c5.5,4.7,8.2,11.9,8.2,21.5
		c0,11.4-2.9,19.7-8.7,25c-5.8,5.1-13.2,7.6-22.3,7.6H891.5z M885.6,107.6h34.7c10.7,0,19.5-3.2,26.2-9.7
		c6.8-6.5,10.1-16.2,10.1-29.1c0-10.8-3.1-19.3-9.3-25.6s-15.2-9.4-27.1-9.4h-34.7L885.6,107.6L885.6,107.6z M879.9,113.8V27.6h40.3
		c13.5,0,23.9,3.8,31,11.5c7.3,7.4,11,17.3,11,29.7c0,6.3-0.9,12.2-2.8,17.6c-1.7,5.5-4.3,10.3-7.9,14.4c-3.6,3.9-8,7.1-13.2,9.4
		c-5.3,2.4-11.3,3.5-18,3.5L879.9,113.8L879.9,113.8z M920.2,119.6c6.4,0,12.1,1.2,17.2,3.5c5.3,2.4,9.7,5.6,13.3,9.7
		c3.8,3.9,6.6,8.6,8.5,14.1c2.1,5.3,3.1,11.1,3.1,17.3v59.4h6.2v-59.4c0-11.2-2.7-21.2-8.2-30s-13.3-14.7-23.7-17.6
		c9.6-2.7,17.1-8.2,22.5-16.5c5.6-8.4,8.5-18.9,8.5-31.5c0-14.3-4.2-25.7-12.7-34.1c-8.5-8.6-20-12.9-34.7-12.9h-46.5v201.9h6.2
		V119.6H920.2z"/>
</g>
</svg>
